<svg height='100px' width='100px'  fill="#000000" xmlns:dc="http://purl.org/dc/elements/1.1/" xmlns:cc="http://creativecommons.org/ns#" xmlns:rdf="http://www.w3.org/1999/02/22-rdf-syntax-ns#" xmlns:svg="http://www.w3.org/2000/svg" xmlns="http://www.w3.org/2000/svg" xmlns:sodipodi="http://sodipodi.sourceforge.net/DTD/sodipodi-0.dtd" xmlns:inkscape="http://www.inkscape.org/namespaces/inkscape" version="1.1" x="0px" y="0px" viewBox="0 0 100 100"><g transform="translate(0,-952.36218)"><path style="font-size:medium;font-style:normal;font-variant:normal;font-weight:normal;font-stretch:normal;text-indent:0;text-align:start;text-decoration:none;line-height:normal;letter-spacing:normal;word-spacing:normal;text-transform:none;direction:ltr;block-progression:tb;writing-mode:lr-tb;text-anchor:start;baseline-shift:baseline;opacity:1;color:#000000;fill:#000000;fill-opacity:1;stroke:none;stroke-width:4;marker:none;visibility:visible;display:inline;overflow:visible;enable-background:accumulate;font-family:Sans;-inkscape-font-specification:Sans" d="M 32.78125 17 C 22.00941 17.24862 12.375 25.73497 12.375 38.4375 C 12.375 42.020897 12.918386 45.301021 13.875 48.28125 L 8 48.28125 A 2.0002 2.0002 0 1 0 8 52.28125 L 35.5 52.28125 A 2.0002 2.0002 0 0 0 37.34375 51.0625 L 40.84375 43 L 48.5625 62.96875 A 2.0002 2.0002 0 0 0 52.21875 63.125 L 60.15625 46.40625 L 62.84375 51.25 A 2.0002 2.0002 0 0 0 64.59375 52.28125 L 73.75 52.28125 A 2.0002 2.0002 0 1 0 73.75 48.28125 L 65.78125 48.28125 L 61.78125 41.09375 A 2.0002 2.0002 0 0 0 58.21875 41.1875 L 50.625 57.21875 L 42.8125 37 A 2.0002 2.0002 0 0 0 40.75 35.71875 A 2.0002 2.0002 0 0 0 39.09375 36.9375 L 34.1875 48.28125 L 18.125 48.28125 C 17.021977 45.378494 16.375 42.139057 16.375 38.4375 C 16.375 27.70607 24.062144 21.20268 32.84375 21 C 38.110774 20.87844 43.808914 23.0733 48.5 28.4375 A 2.0002 2.0002 0 0 0 51.5 28.4375 C 57.754889 21.2851 65.754435 19.71934 72.21875 21.875 C 78.683065 24.03066 83.625 29.85242 83.625 38.4375 C 83.625 49.3396 78.243099 56.3077 71.0625 62.375 C 64.35824 68.0398 56.203409 72.6776 49.96875 78.375 C 41.479464 70.6133 29.457332 64.7392 22.40625 55.75 A 2.0035523 2.0035523 0 0 0 19.25 58.21875 C 27.543385 68.79165 40.927774 74.82725 48.59375 82.40625 A 2.0002 2.0002 0 0 0 51.40625 82.40625 C 57.134162 76.74335 66.014096 71.8684 73.625 65.4375 C 77.947562 61.785113 81.849774 57.525258 84.4375 52.28125 L 92 52.28125 A 2.0002 2.0002 0 1 0 92 48.28125 L 86.09375 48.28125 C 87.066581 45.307667 87.625 42.040476 87.625 38.4375 C 87.625 28.27541 81.48527 20.75661 73.5 18.09375 C 66.0249 15.60102 56.97044 17.39339 49.9375 24.375 C 44.799263 19.31664 38.660628 16.8643 32.78125 17 z " transform="translate(0,952.36218)"></path></g></svg>